<?xml version="1.0" encoding="utf-8"?>
<!-- Generator: Adobe Illustrator 18.1.1, SVG Export Plug-In . SVG Version: 6.00 Build 0)  -->
<svg version="1.1" id="Layer_1" xmlns="http://www.w3.org/2000/svg" xmlns:xlink="http://www.w3.org/1999/xlink" x="0px" y="0px"
	 width="80px" height="10px" viewBox="0 0 80 10" enable-background="new 0 0 80 10" xml:space="preserve">
<rect x="11" y="1" opacity="0.5" fill="#333333" width="9" height="2"/>
<rect x="5" y="4" opacity="0.4" fill="#333333" width="9" height="2"/>
<rect x="15" y="4" opacity="0.3" fill="#333333" width="5" height="2"/>
<rect x="11" y="7" opacity="0.1" fill="#333333" width="9" height="2"/>
<rect x="1" y="7" opacity="0.2" fill="#333333" width="9" height="2"/>
<g>
	<path fill="#333333" d="M30,1h-4v3h3v1h-3v3h3c0.2,0,1,0,1,0v1c0,0-0.7,0-1,0h-4c0,0,0-0.8,0-1l0-8h5V1z"/>
	<path fill="#333333" d="M37,9h-5V0h1v8h4V9z"/>
	<path fill="#333333" d="M44,0v1h-4v3h3v1h-3v3h4v1h-5V0H44z"/>
	<path fill="#333333" d="M50,3c0-1.8,0.3-1.8,0.3-1.8H50c0,0-0.1,0.7-0.2,1.1l-1.2,3.3c0,0-0.1,0.2-0.2,0.2h-0.5
		c-0.2,0-0.2-0.1-0.3-0.2l-1.2-3.3c-0.1-0.3-0.2-1.2-0.2-1.2H46c0,0,0,0.6,0,0.9v7h-1l0-9h1.4c0.1,0,0.2,0.1,0.2,0.2L48,4
		c0.1,0.2,0.1,0.7,0.1,0.7s0-0.5,0.1-0.7l1.3-3.9c0,0,0-0.2,0.1-0.2H51l0,9h-1V3z"/>
	<path fill="#333333" d="M58,0l0,1h-4v3h3v1h-3v3h4v1h-5l0-9H58z"/>
	<path fill="#333333" d="M61,2v7h-1l0-9h1c0,0,0.3-0.1,0.3,0.2L63.5,7l0.2,0.8H64L64,0h1l0,9h-1c-0.7,0-0.9-0.5-0.9-0.6L61.2,2
		c0-0.1-0.1-0.4-0.1-0.4l-0.2,0V2z"/>
	<path fill="#333333" d="M69,1h-2V0h5l0,1h-2v8h-1V1z"/>
	<path fill="#333333" d="M79,3h-1V2c0-0.7-0.3-1-1-1h-1c-0.7,0-1,0.3-1,1l0,0.6C75,4.7,79,4,79,7l0,0c0,1.2-0.8,2-2,2h-1
		c-1.2,0-2-0.7-2-1.3V7c0-0.2,0-1,0-1h1c0,0,0,0.8,0,1l0,0c0,0.7,0.3,1,1,1h1c0.7,0,1-0.3,1-1l0,0c0-2.3-4-1.6-4-4.4L74,2
		c0-1.2,0.8-2,2-2h1c1.2,0,2,0.8,2,2V3z"/>
</g>
</svg>
